<svg width="312" height="56" viewBox="0 0 312 56" preserveAspectRatio="none" fill="none" xmlns="http://www.w3.org/2000/svg">
<rect y="6" width="2" height="44" fill="#1C1C1E"/>
<rect x="2" y="4" width="2" height="48" fill="#1C1C1E"/>
<rect x="6" width="300" height="2" fill="#1C1C1E"/>
<rect x="4" y="2" width="304" height="2" fill="#1C1C1E"/>
<rect width="304" height="48" transform="translate(4 4)" fill="#1C1C1E"/>
<path d="M117.1 31.6562H115.616V21.3438H117.1V31.6562ZM105.725 28.8594C106.434 28.6354 107.051 28.3073 107.577 27.875C108.103 27.4427 108.507 26.9427 108.788 26.375C109.069 25.8073 109.21 25.2135 109.21 24.5938V24.3125H106.1V23.125H109.21V21.3906H110.71V23.125H113.788V24.3125H110.694V24.5938C110.694 25.1771 110.835 25.737 111.116 26.2734C111.402 26.8047 111.811 27.2734 112.342 27.6797C112.874 28.0859 113.496 28.3958 114.21 28.6094L113.491 29.7812C112.673 29.5312 111.962 29.1536 111.358 28.6484C110.759 28.1432 110.301 27.5495 109.983 26.8672C109.665 27.612 109.204 28.2578 108.6 28.8047C107.996 29.3516 107.283 29.7552 106.46 30.0156L105.725 28.8594ZM107.944 30.7031H109.444V33.8281H117.522V35.0312H107.944V30.7031ZM130.14 23.4375C130.14 24.3438 130.116 25.1458 130.069 25.8438C130.028 26.5365 129.921 27.3229 129.749 28.2031H131.765V29.4219H126.093V35.3438H124.593V29.4219H118.999V28.2031H128.249C128.431 27.3229 128.546 26.5391 128.593 25.8516C128.64 25.1641 128.666 24.3594 128.671 23.4375V23.4219H120.562V22.2031H130.14V23.4375ZM148.906 33.5781H136.093V32.3438H139.156V28.6875C138.567 28.3646 138.112 27.9557 137.789 27.4609C137.466 26.9661 137.307 26.4115 137.312 25.7969C137.312 25.0729 137.531 24.4349 137.968 23.8828C138.406 23.3307 139.015 22.9036 139.797 22.6016C140.583 22.2943 141.474 22.1406 142.468 22.1406C143.463 22.1406 144.354 22.2943 145.14 22.6016C145.927 22.9036 146.539 23.3307 146.976 23.8828C147.419 24.4349 147.64 25.0729 147.64 25.7969C147.64 26.4062 147.484 26.9557 147.172 27.4453C146.859 27.9297 146.416 28.3333 145.843 28.6562V32.3438H148.906V33.5781ZM138.75 25.7969C138.75 26.2917 138.906 26.7266 139.218 27.1016C139.531 27.4766 139.968 27.7682 140.531 27.9766C141.093 28.1797 141.739 28.2812 142.468 28.2812C143.192 28.2812 143.836 28.1771 144.398 27.9688C144.966 27.7604 145.409 27.4714 145.726 27.1016C146.044 26.7266 146.203 26.2917 146.203 25.7969C146.203 25.3021 146.044 24.8698 145.726 24.5C145.409 24.125 144.966 23.8359 144.398 23.6328C143.836 23.4297 143.192 23.3281 142.468 23.3281C141.739 23.3281 141.093 23.4297 140.531 23.6328C139.968 23.8359 139.531 24.125 139.218 24.5C138.906 24.8698 138.75 25.3021 138.75 25.7969ZM144.343 32.3438V29.2344C143.76 29.3698 143.135 29.4375 142.468 29.4375C141.812 29.4375 141.198 29.3698 140.625 29.2344V32.3438H144.343ZM154.508 24.3125C154.508 24.8594 154.651 25.3854 154.938 25.8906C155.224 26.3958 155.63 26.8411 156.156 27.2266C156.682 27.612 157.294 27.901 157.992 28.0938L157.289 29.25C156.487 29.0208 155.786 28.6693 155.188 28.1953C154.589 27.7161 154.128 27.1484 153.805 26.4922C153.492 27.2266 153.036 27.8672 152.438 28.4141C151.839 28.9557 151.128 29.3542 150.305 29.6094L149.602 28.4688C150.299 28.2448 150.906 27.9219 151.422 27.5C151.943 27.0781 152.341 26.5911 152.617 26.0391C152.898 25.487 153.039 24.9115 153.039 24.3125V24.1406H149.992V22.9531H153.039V21.2656H154.523V22.9531H157.555V24.1406H154.508V24.3125ZM151.852 32.7031C151.852 32.1615 152.039 31.6979 152.414 31.3125C152.794 30.9271 153.339 30.6328 154.047 30.4297C154.76 30.2266 155.607 30.125 156.586 30.125C157.56 30.125 158.401 30.2266 159.109 30.4297C159.823 30.6328 160.37 30.9271 160.75 31.3125C161.13 31.6979 161.32 32.1615 161.32 32.7031C161.32 33.25 161.128 33.7161 160.742 34.1016C160.362 34.4922 159.818 34.7891 159.109 34.9922C158.401 35.1953 157.56 35.2969 156.586 35.2969C155.612 35.2969 154.768 35.1953 154.055 34.9922C153.341 34.7891 152.794 34.4922 152.414 34.1016C152.039 33.7109 151.852 33.2448 151.852 32.7031ZM153.32 32.7031C153.32 33.0052 153.448 33.2656 153.703 33.4844C153.964 33.6979 154.339 33.8646 154.828 33.9844C155.318 34.099 155.904 34.1562 156.586 34.1562C157.612 34.151 158.411 34.0208 158.984 33.7656C159.557 33.5104 159.846 33.1562 159.852 32.7031C159.846 32.25 159.557 31.901 158.984 31.6562C158.417 31.4062 157.617 31.2812 156.586 31.2812C155.555 31.2812 154.75 31.4062 154.172 31.6562C153.599 31.901 153.315 32.25 153.32 32.7031ZM157.117 25.25H159.789V21.3281H161.273V29.8125H159.789V26.4688H157.117V25.25ZM179.508 33.5938H166.696V32.3594H172.337V29.4844H168.165V22.2812H169.649V24.6875H176.524V22.2812H177.993V29.4844H173.805V32.3594H179.508V33.5938ZM176.524 28.2812V25.8906H169.649V28.2812H176.524ZM192.188 35.3281H190.767V28.1562H188.97V34.6094H187.579V21.6094H188.97V26.9375H190.767V21.3281H192.188V35.3281ZM180.86 22.9844H182.345V30.4609C183.839 30.4453 185.272 30.3021 186.642 30.0312L186.798 31.3281C185.886 31.4896 185.022 31.6042 184.204 31.6719C183.386 31.7396 182.574 31.7708 181.767 31.7656H180.86V22.9844ZM205.353 35.3281H203.853V21.3281H205.353V35.3281ZM193.853 31.5781C195.686 30.7031 197.079 29.638 198.033 28.3828C198.986 27.1276 199.535 25.6719 199.681 24.0156H194.525V22.8281H201.181C201.181 24.9948 200.663 26.9193 199.626 28.6016C198.595 30.2839 196.931 31.6771 194.634 32.7812L193.853 31.5781Z" fill="white"/>
<rect x="4" y="52" width="304" height="2" fill="#1C1C1E"/>
<rect x="6" y="54" width="300" height="2" fill="#1C1C1E"/>
<rect x="308" y="4" width="2" height="48" fill="#1C1C1E"/>
<rect x="310" y="6" width="2" height="44" fill="#1C1C1E"/>
</svg>
