<svg width="16" height="16" viewBox="0 0 16 16" fill="none" xmlns="http://www.w3.org/2000/svg">
<path fill-rule="evenodd" clip-rule="evenodd" d="M12.6668 11.3334H11.3335V12.6667H12.6668V11.3334ZM10.0002 10.0001V11.3334L11.3335 11.3334V10.0001H10.0002ZM8.66683 8.66675H10.0002V10.0001L8.66683 10.0001V8.66675ZM7.3335 7.33342V8.66675H8.66683V7.33342H7.3335ZM6.00016 6.00008V7.33342H7.3335V6.00008H6.00016ZM4.66683 4.66675V6.00008L6.00016 6.00008L6.00016 4.66675H4.66683ZM4.66683 4.66675V3.33342H3.3335V4.66675H4.66683Z" fill="#8E8E93"/>
<path fill-rule="evenodd" clip-rule="evenodd" d="M3.33317 11.3334H4.6665V12.6667H3.33317V11.3334ZM5.99984 10.0001V11.3334L4.6665 11.3334V10.0001H5.99984ZM7.33317 8.66675H5.99984V10.0001L7.33317 10.0001V8.66675ZM8.6665 7.33342V8.66675H7.33317V7.33342H8.6665ZM9.99984 6.00008V7.33342H8.6665V6.00008H9.99984ZM11.3332 4.66675V6.00008L9.99984 6.00008L9.99984 4.66675H11.3332ZM11.3332 4.66675V3.33342H12.6665V4.66675H11.3332Z" fill="#8E8E93"/>
</svg>
