<svg width="320" height="56" viewBox="0 0 320 56" preserveAspectRatio="none" fill="none" xmlns="http://www.w3.org/2000/svg">
<g filter="url(#filter0_d_7_1181)">
<path fill-rule="evenodd" clip-rule="evenodd" d="M10 0H310V2H312V4H314V44H312V46H310V48H10V46H8V44H6V4H8V2H10V0Z" fill="#F2F2F6"/>
<path fill-rule="evenodd" clip-rule="evenodd" d="M310 0H10V2H8V4H6V6H4V42H6V44H8V46H10V48H310V46H312V44H314V42H316V6H314V4H312V2H310V0ZM310 2V4H312V6H314V42H312V44H310V46H10V44H8V42H6V6H8V4H10V2H310Z" fill="#E4E4EA"/>
</g>
<defs>
<filter id="filter0_d_7_1181" x="0" y="0" width="320" height="56" filterUnits="userSpaceOnUse" color-interpolation-filters="sRGB">
<feFlood flood-opacity="0" result="BackgroundImageFix"/>
<feColorMatrix in="SourceAlpha" type="matrix" values="0 0 0 0 0 0 0 0 0 0 0 0 0 0 0 0 0 0 127 0" result="hardAlpha"/>
<feOffset dy="4"/>
<feGaussianBlur stdDeviation="2"/>
<feComposite in2="hardAlpha" operator="out"/>
<feColorMatrix type="matrix" values="0 0 0 0 0 0 0 0 0 0 0 0 0 0 0 0 0 0 0.25 0"/>
<feBlend mode="normal" in2="BackgroundImageFix" result="effect1_dropShadow_7_1181"/>
<feBlend mode="normal" in="SourceGraphic" in2="effect1_dropShadow_7_1181" result="shape"/>
</filter>
</defs>
</svg>
