<svg width="16" height="16" viewBox="0 0 16 16" fill="none" xmlns="http://www.w3.org/2000/svg">
<path fill-rule="evenodd" clip-rule="evenodd" d="M4.66536 7.33333L4.66536 6L3.33203 6L3.33203 7.33333L4.66536 7.33333ZM5.9987 8.66667L4.66536 8.66667L4.66536 7.33333L5.9987 7.33333L5.9987 8.66667ZM7.33203 10L5.9987 10L5.9987 8.66667L7.33203 8.66667L7.33203 10ZM8.66536 10L8.66536 11.3333L7.33203 11.3333L7.33203 10L8.66536 10ZM9.9987 8.66667L9.9987 10L8.66536 10L8.66536 8.66667L9.9987 8.66667ZM11.332 7.33333L11.332 8.66667L9.9987 8.66667L9.9987 7.33333L11.332 7.33333ZM11.332 7.33333L11.332 6L12.6654 6L12.6654 7.33333L11.332 7.33333Z" fill="#8E8E93"/>
</svg>
