<svg width="24" height="24" viewBox="0 0 24 24" fill="none" xmlns="http://www.w3.org/2000/svg">
<g clip-path="url(#clip0_1720_19016)">
<path fill-rule="evenodd" clip-rule="evenodd" d="M3.65685 18.8284L5.07107 20.2426L6.48528 18.8284L7.89949 20.2426L10.0208 18.1213L11.435 19.5355L19.2132 11.7574L12.1421 4.68629L10.0208 6.80761L13.5563 10.3431L12.1421 11.7574L8.6066 8.22183L4.36396 12.4645L5.77817 13.8787L3.65685 16L5.07107 17.4142L3.65685 18.8284ZM3.65685 18.8284L2.24264 17.4142L3.65685 16L2.24264 14.5858L4.36396 12.4645L2.94975 11.0503L10.7279 3.27208L12.1421 4.68629L13.5563 3.27208L15.3848 5.10057L15.3848 2.85793L17.3848 2.85793L17.3848 5.10053L19.8082 2.67714L21.2224 4.09135L18.9204 6.39342H20.9287V8.39342H18.6777L20.6274 10.3431L19.2132 11.7574L20.6274 13.1716L12.8492 20.9497L11.435 19.5355L9.31371 21.6569L7.89949 20.2426L6.48528 21.6569L5.07107 20.2426L3.65685 21.6569L2.24264 20.2426L3.65685 18.8284ZM12.1421 14.5858L8.6066 11.0503L7.19239 12.4645L10.7279 16L12.1421 14.5858Z" fill="#F1805C"/>
</g>
<defs>
<clipPath id="clip0_1720_19016">
<rect width="24" height="24" fill="white" transform="matrix(1 0 0 -1 0 24)"/>
</clipPath>
</defs>
</svg>
